# Blender v2.81 (sub 16) OBJ File: 'mesa.blend'
# www.blender.org
mtllib mesa_base.mtl
o Circle.002_Circle.009
v -1.112219 0.110787 -1.283273
v -1.062327 0.110787 -1.333165
v -1.112219 0.110787 -1.212715
v -1.062327 0.110787 -1.162823
v -0.991769 0.110787 -1.162823
v -0.941877 0.110787 -1.212715
v -0.941877 0.110787 -1.283273
v -0.991769 0.110787 -1.333165
v -0.991769 0.080787 -1.333165
v -0.941877 0.080787 -1.283273
v -0.941877 0.080787 -1.212715
v -0.991769 0.080787 -1.162823
v -1.062327 0.080787 -1.162823
v -1.112219 0.080787 -1.212715
v -1.062327 0.080787 -1.333165
v -1.112219 0.080787 -1.283273
vn 0.0000 0.0000 -1.0000
vn -0.7071 0.0000 -0.7071
vn -0.7071 0.0000 0.7071
vn 0.7071 0.0000 0.7071
vn 0.7071 0.0000 -0.7071
vn -1.0000 0.0000 0.0000
vn 0.0000 0.0000 1.0000
vn 1.0000 0.0000 0.0000
vn 0.0000 1.0000 0.0000
vn 0.0000 -1.0000 -0.0000
usemtl None
s off
f 2//1 8//1 9//1 15//1
f 1//2 2//2 15//2 16//2
f 4//3 3//3 14//3 13//3
f 6//4 5//4 12//4 11//4
f 8//5 7//5 10//5 9//5
f 3//6 1//6 16//6 14//6
f 5//7 4//7 13//7 12//7
f 7//8 6//8 11//8 10//8
f 2//9 1//9 3//9 8//9
f 4//9 7//9 8//9 3//9
f 5//9 6//9 7//9 4//9
f 15//10 9//10 14//10 16//10
f 9//10 10//10 13//10 14//10
f 10//10 11//10 12//10 13//10
