# Blender v2.81 (sub 16) OBJ File: 'mesa.blend'
# www.blender.org
mtllib table.mtl
o Cube
v 1.000000 -0.033818 -1.000000
v 1.000000 0.033818 -1.000000
v 1.000000 -0.033818 1.000000
v 1.000000 0.033818 1.000000
v -1.000000 -0.033818 -1.000000
v -1.000000 0.033818 -1.000000
v -1.000000 -0.033818 1.000000
v -1.000000 0.033818 1.000000
v 0.750000 -0.033818 0.750000
v 0.750000 -0.033818 -0.750000
v -0.750000 -0.033818 -0.750000
v -0.750000 -0.033818 0.750000
v 0.750000 -0.033818 0.875000
v 0.875000 -0.033818 0.750000
v 0.750000 -0.033818 -0.875000
v 0.875000 -0.033818 -0.750000
v -0.750000 -0.033818 -0.875000
v -0.875000 -0.033818 -0.750000
v -0.750000 -0.033818 0.875000
v -0.875000 -0.033818 0.750000
v -0.875000 -0.033818 -0.875000
v 0.875000 -0.033818 -0.875000
v 0.875000 -0.033818 0.875000
v -0.875000 -0.033818 0.875000
v 0.750000 -0.929062 -0.875000
v 0.750000 -0.929062 -0.750000
v -0.750000 -0.929062 -0.875000
v -0.750000 -0.929062 -0.750000
v -0.875000 -0.929062 -0.750000
v -0.875000 -0.929062 0.750000
v -0.750000 -0.929062 0.750000
v 0.750000 -0.929062 0.750000
v 0.750000 -0.929062 0.875000
v 0.875000 -0.929062 0.750000
v 0.875000 -0.929062 -0.750000
v -0.750000 -0.929062 0.875000
v -0.875000 -0.929062 -0.875000
v 0.875000 -0.929062 -0.875000
v 0.875000 -0.929062 0.875000
v -0.875000 -0.929062 0.875000
v -0.750000 0.079203 0.750000
v -0.750000 0.079203 -0.750000
v 0.750000 0.079203 -0.750000
v 0.750000 0.079203 0.750000
v -0.750000 0.079203 0.625000
v -0.625000 0.079203 0.750000
v -0.750000 0.079203 -0.625000
v -0.625000 0.079203 -0.750000
v 0.750000 0.079203 -0.625000
v 0.625000 0.079203 -0.750000
v 0.750000 0.079203 0.625000
v 0.625000 0.079203 0.750000
v 0.875000 0.011562 -0.875000
v -0.875000 0.011562 -0.875000
v -0.875000 0.011562 0.875000
v -0.937500 0.011562 0.937500
v -0.937500 0.011562 -0.937500
v 0.937500 0.011562 -0.937500
v 0.937500 0.011562 0.937500
v -1.000000 0.033818 -1.000000
v -0.937500 0.033818 0.937500
v -0.937500 0.033818 -0.937500
v 0.937500 0.033818 -0.937500
v 0.937500 0.033818 0.937500
v -0.750000 0.117839 0.625000
v -0.750000 0.117839 0.750000
v -0.625000 0.117839 0.750000
v -0.625000 0.117839 -0.750000
v -0.750000 0.117839 -0.750000
v 0.750000 0.117839 0.625000
v 0.750000 0.117839 0.750000
v -0.750000 0.117839 -0.625000
v 0.750000 0.117839 -0.750000
v 0.750000 0.117839 -0.625000
v 0.625000 0.117839 -0.750000
v 0.625000 0.117839 0.750000
v 0.875000 0.011562 0.875000
vt 0.375000 0.750000
vt 0.375000 1.000000
vt 0.625000 1.000000
vt 0.625000 0.750000
vt 0.375000 0.000000
vt 0.375000 0.250000
vt 0.625000 0.250000
vt 0.625000 0.000000
vt 0.375000 0.500000
vt 0.625000 0.500000
vt 0.656250 0.718750
vt 0.656250 0.718750
vt 0.656250 0.734375
vt 0.656250 0.734375
vt 0.843750 0.515625
vt 0.843750 0.515625
vt 0.859375 0.515625
vt 0.859375 0.515625
vt 0.640625 0.515625
vt 0.640625 0.515625
vt 0.656250 0.515625
vt 0.656250 0.515625
vt 0.843750 0.531250
vt 0.843750 0.531250
vt 0.640625 0.531250
vt 0.656250 0.531250
vt 0.859375 0.531250
vt 0.640625 0.718750
vt 0.640625 0.734375
vt 0.843750 0.718750
vt 0.843750 0.734375
vt 0.859375 0.734375
vt 0.859375 0.718750
vt 0.859375 0.531250
vt 0.859375 0.718750
vt 0.859375 0.734375
vt 0.843750 0.734375
vt 0.640625 0.718750
vt 0.656250 0.531250
vt 0.640625 0.531250
vt 0.843750 0.718750
vt 0.640625 0.734375
vt 0.132812 0.507812
vt 0.132812 0.507812
vt 0.132812 0.742188
vt 0.132812 0.742188
vt 0.367188 0.507812
vt 0.367188 0.742188
vt 0.367188 0.742188
vt 0.367188 0.507812
vt 0.156250 0.531250
vt 0.156250 0.531250
vt 0.171875 0.531250
vt 0.171875 0.531250
vt 0.171875 0.718750
vt 0.171875 0.718750
vt 0.156250 0.718750
vt 0.156250 0.718750
vt 0.156250 0.703125
vt 0.156250 0.546875
vt 0.343750 0.546875
vt 0.343750 0.531250
vt 0.328125 0.531250
vt 0.343750 0.718750
vt 0.343750 0.703125
vt 0.328125 0.718750
vt 0.343750 0.718750
vt 0.328125 0.718750
vt 0.343750 0.703125
vt 0.156250 0.703125
vt 0.328125 0.531250
vt 0.343750 0.531250
vt 0.156250 0.546875
vt 0.343750 0.546875
vt 0.000000 0.000000
vt 0.000000 0.000000
vt 0.000000 0.000000
vt 0.000000 0.000000
vt 0.000000 0.000000
vt 0.000000 0.000000
vt 0.000000 0.000000
vt 0.000000 0.000000
vt 0.000000 0.000000
vt 0.000000 0.000000
vt 0.000000 0.000000
vt 0.000000 0.000000
vt 0.000000 0.000000
vt 0.000000 0.000000
vt 0.000000 0.000000
vt 0.000000 0.000000
vt 0.000000 0.000000
vn 0.0000 0.0000 1.0000
vn -1.0000 0.0000 0.0000
vn 1.0000 0.0000 0.0000
vn 0.0000 0.0000 -1.0000
vn 0.0000 -1.0000 0.0000
vn 0.0000 1.0000 0.0000
vn -0.7071 0.0000 0.7071
vn 0.7071 0.0000 0.7071
vn 0.7071 0.0000 -0.7071
vn -0.7071 0.0000 -0.7071
vn 0.0000 0.8795 0.4759
vn -0.4759 0.8795 0.0000
vn 0.0000 0.8795 -0.4759
vn 0.4759 0.8795 0.0000
usemtl Material
s off
f 4/1/1 8/2/1 7/3/1 3/4/1
f 8/5/2 6/6/2 5/7/2 7/8/2
f 2/9/3 4/1/3 3/4/3 1/10/3
f 6/6/4 2/9/4 1/10/4 5/7/4
f 9/11/2 32/12/2 33/13/2 13/14/2
f 17/15/4 27/16/4 37/17/4 21/18/4
f 22/19/4 38/20/4 25/21/4 15/22/4
f 11/23/3 28/24/3 27/16/3 17/15/3
f 38/20/5 35/25/5 26/26/5 25/21/5
f 27/16/5 28/24/5 29/27/5 37/17/5
f 34/28/5 39/29/5 33/13/5 32/12/5
f 31/30/5 36/31/5 40/32/5 30/33/5
f 18/34/1 29/27/1 28/24/1 11/23/1
f 20/35/2 30/33/2 40/32/2 24/36/2
f 24/36/1 40/32/1 36/31/1 19/37/1
f 14/38/4 34/28/4 32/12/4 9/11/4
f 10/39/1 26/26/1 35/25/1 16/40/1
f 12/41/4 31/30/4 30/33/4 20/35/4
f 23/42/3 39/29/3 34/28/3 14/38/3
f 19/37/3 36/31/3 31/30/3 12/41/3
f 16/40/3 35/25/3 38/20/3 22/19/3
f 13/14/1 33/13/1 39/29/1 23/42/1
f 21/18/2 37/17/2 29/27/2 18/34/2
f 15/22/2 25/21/2 26/26/2 10/39/2
f 57/43/3 62/44/3 61/45/3 56/46/3
f 58/47/2 59/48/2 64/49/2 63/50/2
f 58/47/1 63/50/1 62/44/1 57/43/1
f 42/51/4 69/52/4 68/53/4 48/54/4
f 46/55/1 67/56/1 66/57/1 41/58/1
f 66/57/6 67/56/6 65/59/6
f 69/52/6 72/60/6 68/53/6
f 74/61/6 73/62/6 75/63/6
f 71/64/6 70/65/6 76/66/6
f 44/67/1 71/64/1 76/66/1 52/68/1
f 51/69/3 70/65/3 71/64/3 44/67/3
f 41/58/2 66/57/2 65/59/2 45/70/2
f 50/71/4 75/63/4 73/62/4 43/72/4
f 47/73/2 72/60/2 69/52/2 42/51/2
f 43/72/3 73/62/3 74/61/3 49/74/3
f 50/71/7 49/74/7 74/61/7 75/63/7
f 47/73/8 48/54/8 68/53/8 72/60/8
f 46/55/9 45/70/9 65/59/9 67/56/9
f 52/68/10 76/66/10 70/65/10 51/69/10
f 57/75/6 54/76/6 53/77/6 58/78/6
f 56/46/4 61/45/4 64/49/4 59/48/4
f 54/76/6 57/75/6 56/79/6 55/80/6
f 55/80/6 56/79/6 59/48/6 77/81/6
f 58/47/6 53/77/6 77/81/6 59/48/6
f 62/44/6 63/50/6 2/9/6 60/82/6
f 4/1/6 2/9/6 63/50/6 64/49/6
f 8/83/6 4/1/6 64/49/6 61/45/6
f 8/83/6 61/45/6 62/44/6 60/82/6
f 10/39/5 9/84/5 12/41/5 11/85/5
f 13/14/5 19/37/5 12/41/5 9/84/5
f 11/85/5 12/86/5 20/35/5 18/34/5
f 10/87/5 11/85/5 17/15/5 15/22/5
f 14/38/5 9/84/5 10/39/5 16/40/5
f 13/14/5 23/42/5 3/88/5
f 23/42/5 14/38/5 3/88/5
f 7/89/5 24/36/5 19/37/5
f 24/36/5 7/89/5 20/35/5
f 5/90/5 21/18/5 18/34/5
f 21/18/5 5/90/5 17/15/5
f 1/91/5 22/19/5 15/22/5
f 22/19/5 1/91/5 16/40/5
f 1/91/5 3/88/5 14/38/5 16/40/5
f 7/89/5 19/37/5 13/14/5 3/88/5
f 7/89/5 5/90/5 18/34/5 20/35/5
f 5/90/5 1/91/5 15/22/5 17/15/5
f 46/55/11 41/58/11 55/80/11
f 41/58/12 45/70/12 55/80/12
f 47/73/12 42/51/12 54/76/12
f 42/51/13 48/54/13 54/76/13
f 50/71/13 43/72/13 53/77/13
f 43/72/14 49/74/14 53/77/14
f 51/69/14 44/67/14 77/81/14
f 44/67/11 52/68/11 77/81/11
f 77/81/11 52/68/11 46/55/11 55/80/11
f 54/76/12 55/80/12 45/70/12 47/73/12
f 53/77/13 54/76/13 48/54/13 50/71/13
f 77/81/14 53/77/14 49/74/14 51/69/14
f 50/71/6 52/68/6 51/69/6 49/74/6
f 45/70/6 46/55/6 48/54/6 47/73/6
f 52/68/6 50/71/6 48/54/6 46/55/6
l 6 60
